<svg width="66" height="66" viewBox="0 0 66 66" fill="none" xmlns="http://www.w3.org/2000/svg">
<path d="M26.4027 33.4157L22.6348 37.1836" stroke="#44BE78" stroke-width="2" stroke-miterlimit="10" stroke-linecap="round" stroke-linejoin="round"/>
<mask id="mask0_101_7253" style="mask-type:luminance" maskUnits="userSpaceOnUse" x="0" y="0" width="66" height="66">
<path d="M65 65V1H1V65H65Z" fill="white" stroke="white" stroke-width="2"/>
</mask>
<g mask="url(#mask0_101_7253)">
<path d="M10.6172 31.2109L20.8599 20.9682C21.48 20.3468 22.2947 20.0362 23.1094 20.0362C23.9099 20.0362 24.7104 20.3378 25.3278 20.9398" stroke="#44BE78" stroke-width="2" stroke-miterlimit="10" stroke-linecap="round" stroke-linejoin="round"/>
<path d="M25.323 25.4952L17.291 33.5273" stroke="#44BE78" stroke-width="2" stroke-miterlimit="10" stroke-linecap="round" stroke-linejoin="round"/>
<path d="M22.9492 53.1562C23.1297 52.9964 23.305 52.8314 23.4764 52.66L33.1353 43.0011C33.2358 42.9006 33.326 42.7936 33.406 42.6815" stroke="#44BE78" stroke-width="2" stroke-miterlimit="10" stroke-linecap="round" stroke-linejoin="round"/>
<path d="M3.30273 36.0742V26.9283C3.30273 25.9525 3.69848 25.0695 4.33785 24.4288C4.97723 23.7895 5.86152 23.395 6.83734 23.395C8.78898 23.395 10.3707 24.9767 10.3707 26.9283V31.4542V32.4971" stroke="#44BE78" stroke-width="2" stroke-miterlimit="10" stroke-linecap="round" stroke-linejoin="round"/>
<path d="M3.30387 39.868V43.034C3.30516 44.0124 2.91586 44.9508 2.22363 45.6418L0.966797 46.8999L7.36184 53.2949" stroke="#44BE78" stroke-width="2" stroke-miterlimit="10" stroke-linecap="round" stroke-linejoin="round"/>
<path d="M13.3559 41.6914C14.5889 39.2124 14.0998 36.2226 12.142 34.2647L10.9209 33.0435L10.3711 32.4937" stroke="#44BE78" stroke-width="2" stroke-miterlimit="10" stroke-linecap="round" stroke-linejoin="round"/>
<path d="M43.4366 34.7188L35.1133 26.3953" stroke="#44BE78" stroke-width="2" stroke-miterlimit="10" stroke-linecap="round" stroke-linejoin="round"/>
<path d="M28.8398 28.1242C28.9146 28.8202 29.2201 29.497 29.7538 30.0307L31.72 31.998" stroke="#44BE78" stroke-width="2" stroke-miterlimit="10" stroke-linecap="round" stroke-linejoin="round"/>
<path d="M40.0078 22.6562C40.3958 22.8109 40.758 23.0455 41.0726 23.3601L49.1342 31.4219" stroke="#44BE78" stroke-width="2" stroke-miterlimit="10" stroke-linecap="round" stroke-linejoin="round"/>
<path d="M39.7825 40.0595L31.7207 31.9977C30.4787 30.7557 28.4648 30.7557 27.2226 31.9977C25.9805 33.2399 25.9805 35.2538 27.2226 36.4959L37.465 46.7383" stroke="#44BE78" stroke-width="2" stroke-miterlimit="10" stroke-linecap="round" stroke-linejoin="round"/>
<path d="M50.8987 33.1849L45.5931 27.8792C44.5823 26.8685 44.5823 25.2294 45.5931 24.2186C46.6041 23.2078 48.2429 23.2078 49.2538 24.2186L58.9128 33.8776C60.5835 35.5482 61.7346 37.6671 62.2269 39.978C62.5318 41.4088 63.2445 42.7209 64.279 43.7553L65.0314 44.5076L53.1523 56.3867L51.8951 55.1295C51.2035 54.4379 50.2653 54.049 49.2868 54.0495H33.1806C32.2048 54.0495 31.3212 53.6544 30.6813 53.0147C30.0416 52.3748 29.6465 51.4912 29.6465 50.5154C29.647 48.5631 31.2289 46.9813 33.1806 46.9813H37.7063H38.7486" stroke="#44BE78" stroke-width="2" stroke-miterlimit="10" stroke-linecap="round" stroke-linejoin="round"/>
<path d="M47.9458 43.9956C45.4669 42.7627 42.4769 43.2517 40.5191 45.2096L39.2978 46.4307L38.748 46.9805" stroke="#44BE78" stroke-width="2" stroke-miterlimit="10" stroke-linecap="round" stroke-linejoin="round"/>
<path d="M30.2188 18.0648V28.0605C30.2188 29.4121 31.3145 30.5078 32.666 30.5078C34.0176 30.5078 35.1133 29.4121 35.1133 28.0605V18.0648" stroke="#44BE78" stroke-width="2" stroke-miterlimit="10" stroke-linecap="round" stroke-linejoin="round"/>
<path d="M35.1133 17.1496V25.5333C35.1133 26.8849 36.209 27.9805 37.5604 27.9805C38.912 27.9805 40.0077 26.8849 40.0077 25.5333V16.7611" stroke="#44BE78" stroke-width="2" stroke-miterlimit="10" stroke-linecap="round" stroke-linejoin="round"/>
<path d="M30.2187 17.1498V25.9219C30.2187 27.2734 29.123 28.3691 27.7715 28.3691C26.4199 28.3691 25.3242 27.2734 25.3242 25.9219V14.7769" stroke="#44BE78" stroke-width="2" stroke-miterlimit="10" stroke-linecap="round" stroke-linejoin="round"/>
<path d="M40.0108 14.8407V20.6139C40.0108 21.7138 40.9024 22.6055 42.0024 22.6055C43.1023 22.6055 43.994 21.7138 43.994 20.6139V10.1036C43.994 8.28566 43.4675 6.50675 42.4782 4.98166C41.8655 4.0373 41.5395 2.93567 41.5395 1.81006V0.991371H28.6135V2.35945C28.6135 3.11201 28.3149 3.83388 27.7821 4.36614L19.0193 13.1288C18.4885 13.6596 18.2227 14.3553 18.2227 15.0516C18.2227 15.7478 18.4885 16.4435 19.0193 16.9743C20.0817 18.0363 21.803 18.0363 22.8648 16.9743L25.3271 14.5121L25.8941 13.945" stroke="#44BE78" stroke-width="2" stroke-miterlimit="10" stroke-linecap="round" stroke-linejoin="round"/>
<path d="M26.6504 42.1602L29.471 39.3396" stroke="#44BE78" stroke-width="2" stroke-miterlimit="10" stroke-linecap="round" stroke-linejoin="round"/>
<path d="M63.2652 13.5486L63.8594 12.9543C65.4256 11.3881 65.4256 8.84867 63.8594 7.28246C62.2932 5.71625 59.7538 5.71625 58.1875 7.28246L56.7786 8.69141L55.3696 7.28246C53.8034 5.71625 51.264 5.71625 49.6978 7.28246C48.9153 8.06621 48.5234 9.0923 48.5234 10.1184C48.5234 11.1445 48.9153 12.1706 49.6978 12.9543L56.7786 20.0352L60.5362 16.2775" stroke="#44BE78" stroke-width="2" stroke-miterlimit="10" stroke-linecap="round" stroke-linejoin="round"/>
<path d="M22.2729 52.2558C20.7067 50.6896 18.1674 50.6896 16.6012 52.2558L15.1926 53.6644L13.7839 52.2558C12.2177 50.6896 9.67837 50.6896 8.11216 52.2558C6.54595 53.822 6.54595 56.3613 8.11216 57.9275L15.1926 65.0078L22.2729 57.9275C23.8391 56.3613 23.8391 53.822 22.2729 52.2558Z" stroke="#44BE78" stroke-width="2" stroke-miterlimit="10" stroke-linecap="round" stroke-linejoin="round"/>
<path d="M14.3263 9.68086C13.1721 8.52676 11.3009 8.52676 10.1468 9.68086L9.1087 10.7189L8.07062 9.68086C6.91652 8.52676 5.04519 8.52676 3.89096 9.68086C2.73687 10.8351 2.73687 12.7063 3.89096 13.8604L9.1087 19.0781L14.3263 13.8604C15.4805 12.7063 15.4805 10.8351 14.3263 9.68086Z" stroke="#44BE78" stroke-width="2" stroke-miterlimit="10" stroke-linecap="round" stroke-linejoin="round"/>
</g>
</svg>
