<svg width="53" height="53" viewBox="0 0 53 53" fill="none" xmlns="http://www.w3.org/2000/svg">
<path d="M12.2579 16.8762V12.1797H0V16.8762H2.81226V26.9223H0V31.6188H12.2579V26.9223H9.44569V16.8762H12.2579Z" fill="white"/>
<path d="M25.7854 19.6376C25.0277 19.4172 21.1293 18.3014 20.4543 18.081C19.7793 17.8606 19.2283 17.5437 19.2283 17.1443C19.2283 16.7448 19.8482 16.3177 21.1018 16.3177C25.0553 16.3177 26.9545 18.756 26.9545 18.756C26.9545 18.756 27.1685 19.0411 27.2403 19.1433H31.0546V12.4912H26.9598V13.7014C26.6471 13.4854 24.3381 11.9785 20.7574 11.9785C16.0325 11.9785 13.4014 14.4305 13.4014 18.0948C13.4014 21.759 16.7212 23.2743 17.6442 23.66C18.5671 24.0457 22.1763 25.0651 23.7191 25.5472C25.2619 26.0294 25.8267 26.3737 25.8267 26.6217C25.8267 26.8696 25.1517 27.5171 23.2232 27.5171C19.8639 27.5171 18.1339 25.5361 17.8303 25.1525V25.1495C17.7338 25.0201 17.6205 24.867 17.582 24.8094C17.5375 24.7427 17.4342 24.5947 17.3626 24.4925H13.5483V31.5962H17.8303V30.1128C18.3285 30.4444 20.8789 32.0354 23.9395 32.0354C27.3558 32.0354 31.7088 30.5477 31.7088 25.9054C31.7088 21.2631 26.543 19.858 25.7854 19.6376Z" fill="white"/>
<path d="M42.5817 11.916C36.8866 11.916 32.2158 14.7634 32.2158 22.0321C32.2158 29.3007 37.2864 32.0233 42.6066 32.0233C47.9269 32.0233 52.9475 29.3256 52.9475 22.1071C52.9475 14.8886 47.9271 11.916 42.5817 11.916ZM42.6317 27.1775C40.6834 27.1775 39.4344 26.7279 39.4344 22.0072C39.4344 17.2863 40.3587 16.7868 42.7066 16.7868C44.1303 16.7868 45.8538 16.8866 45.8538 21.8573C45.8538 26.828 44.5801 27.1775 42.6317 27.1775Z" fill="white"/>
<path d="M8.16958 10.038C9.4498 8.14761 11.0242 6.47187 12.8289 5.08023C13.5587 5.61978 14.3344 6.10919 15.1499 6.54537C13.7836 8.06837 12.5595 9.75569 12.3567 10.038H13.1765C13.6686 9.37483 14.6864 8.04071 15.7597 6.85791C16.9328 7.4346 18.1795 7.90627 19.4803 8.26553C19.1341 9.00014 18.8723 9.64251 18.7187 10.038H19.431C19.5946 9.63072 19.8344 9.06262 20.1336 8.43491C21.793 8.84034 23.5318 9.06758 25.3106 9.10219V10.0381H25.9718V9.10538C27.7376 9.09249 29.4668 8.89126 31.1204 8.51315C31.4023 9.10946 31.6292 9.6478 31.786 10.038H32.4982C32.3506 9.65816 32.1035 9.05094 31.7772 8.35237C33.1013 8.00787 34.3718 7.54855 35.5684 6.9809C36.6005 8.13229 37.5655 9.39786 38.0405 10.038H38.8602C38.6637 9.76439 37.503 8.16392 36.184 6.6763C37.0908 6.2076 37.9506 5.67433 38.7543 5.08023C40.5591 6.47187 42.1336 8.14761 43.4137 10.038H44.209C40.2982 4.00212 33.5037 0 25.7915 0C18.0793 0 11.2849 4.00212 7.37402 10.038H8.16958ZM19.7753 7.66085C18.538 7.3266 17.3508 6.88844 16.2316 6.35241C16.3836 6.19438 16.5356 6.04131 16.6858 5.89639C18.2184 4.41846 20.7392 2.79562 21.2917 2.44628C21.7401 2.69258 22.2294 2.90086 22.7499 3.06617C22.3457 3.59624 21.552 4.67226 20.6877 6.03712C20.3513 6.5683 20.0448 7.12658 19.7753 7.66085ZM25.3106 8.44075C23.636 8.40725 21.9986 8.19874 20.4335 7.82758C20.6782 7.34908 20.9513 6.8567 21.2463 6.39098C22.2421 4.81872 23.1405 3.63823 23.4398 3.25417C24.037 3.39446 24.6646 3.48317 25.3106 3.51216V8.44075ZM25.9718 8.44406V3.51965C26.6091 3.50885 27.2326 3.44141 27.8294 3.3214C28.1715 3.76386 29.0275 4.90159 29.9707 6.39098C30.2811 6.88105 30.5673 7.40055 30.8217 7.90252C29.2621 8.24745 27.6342 8.43171 25.9718 8.44406ZM31.4846 7.74592C31.205 7.18609 30.8836 6.59651 30.5292 6.03712C29.7096 4.74268 28.9531 3.70788 28.5325 3.15224C29.086 2.99674 29.6086 2.79463 30.0884 2.55009C30.8642 3.04732 33.1171 4.53285 34.5311 5.89639C34.7188 6.07745 34.909 6.27086 35.099 6.47143C33.9564 6.99897 32.7453 7.426 31.4846 7.74592ZM38.2007 4.66686C37.425 5.2268 36.5961 5.72844 35.7234 6.16947C35.4795 5.90785 35.2336 5.65516 34.9901 5.42043C33.6676 4.14505 31.6984 2.80708 30.7336 2.17882C31.0613 1.96635 31.3611 1.73139 31.6283 1.47561C34.0165 2.15799 36.2337 3.2491 38.2007 4.66686ZM25.7917 0.661216C27.5378 0.661216 29.2348 0.874237 30.8597 1.27295C29.6266 2.27458 27.7788 2.86218 25.7917 2.86218C23.7956 2.86218 21.9529 2.27646 20.7214 1.2735C22.3469 0.874458 24.0447 0.661216 25.7917 0.661216ZM19.9549 1.47561C20.1724 1.68412 20.4106 1.87917 20.6685 2.05903C19.7944 2.6215 17.6414 4.05645 16.2269 5.42032C16.0233 5.6167 15.818 5.82586 15.6134 6.04208C14.8311 5.63246 14.085 5.17368 13.3829 4.66686C15.3496 3.2491 17.5667 2.1581 19.9549 1.47561Z" fill="white"/>
<path d="M43.4143 33.8204C42.1612 35.6711 40.6261 37.3157 38.8692 38.6897C38.0324 38.0605 37.1342 37.498 36.1844 37.0067C37.3286 35.716 38.3539 34.3405 38.7334 33.8205H37.91C37.4024 34.4983 36.5138 35.648 35.5687 36.7023C34.3721 36.1345 33.1017 35.6748 31.7774 35.3304C32.0574 34.7308 32.2786 34.1994 32.4291 33.8205H31.7148C31.5634 34.1899 31.3621 34.6586 31.1202 35.1703C29.4676 34.7927 27.7386 34.5916 25.9714 34.5788V33.8205H25.3102V34.5818C23.53 34.6163 21.7913 34.8433 20.1328 35.2482C19.8745 34.7063 19.6604 34.2086 19.5014 33.8205H18.7869C18.9446 34.2177 19.18 34.7824 19.4793 35.4174C18.1782 35.7767 16.931 36.2477 15.758 36.8248C14.7724 35.7383 13.8338 34.5246 13.3062 33.8204H12.4828C12.8749 34.3577 13.9579 35.8103 15.1494 37.1383C14.2912 37.5978 13.4764 38.1157 12.7132 38.6896C10.9562 37.3156 9.42104 35.6709 8.16814 33.8203H7.37402C11.285 39.8562 18.0792 43.8583 25.7913 43.8583C33.5033 43.8583 40.2976 39.8563 44.2086 33.8203L43.4143 33.8204ZM31.4844 35.9372C32.7455 36.257 33.9567 36.6839 35.0994 37.2117C34.909 37.4125 34.7187 37.6062 34.5307 37.7876C33.1211 39.1467 30.8753 40.6289 30.0937 41.1301C29.6139 40.8845 29.0907 40.6824 28.5354 40.5269C28.9568 39.9703 29.7112 38.9375 30.5287 37.6467C30.8832 37.0872 31.2047 36.4972 31.4844 35.9372ZM25.9713 35.2399C27.635 35.2523 29.2629 35.436 30.8215 35.7805C30.5669 36.2828 30.2807 36.8024 29.9701 37.2929C29.0282 38.7802 28.1734 39.9167 27.8304 40.3605C27.2353 40.2419 26.6118 40.175 25.9712 40.1645V35.2399H25.9713ZM25.3101 35.2432V40.1713C24.6616 40.2001 24.0334 40.2877 23.4369 40.427C23.1355 40.04 22.24 38.8629 21.2458 37.2929C20.9505 36.8269 20.6772 36.3341 20.4324 35.8552C21.9966 35.4845 23.634 35.2766 25.3101 35.2432ZM19.7745 36.0225C20.044 36.5571 20.3507 37.1154 20.6872 37.6468C21.5508 39.0105 22.344 40.0859 22.7485 40.6164C22.2272 40.7816 21.7385 40.9901 21.2903 41.2371C20.7357 40.8862 18.2171 39.2645 16.6854 37.7876C16.5349 37.6426 16.383 37.4893 16.2307 37.3311C17.3497 36.7949 18.5368 36.3566 19.7745 36.0225ZM13.2626 39.1042C13.9995 38.5624 14.7853 38.074 15.6119 37.641C15.8166 37.8575 16.0224 38.067 16.2263 38.2636C17.6404 39.6271 19.7928 41.0617 20.6672 41.6244C20.3557 41.8425 20.0717 42.0823 19.8193 42.3426C17.4343 41.6437 15.222 40.5373 13.2626 39.1042ZM25.7912 43.1972C23.988 43.1972 22.2366 42.9708 20.5635 42.5464C21.7852 41.4728 23.7252 40.8218 25.7912 40.8218C27.8546 40.8218 29.7965 41.4732 31.0183 42.5465C29.3453 42.9709 27.5942 43.1972 25.7912 43.1972ZM31.7626 42.3426C31.4627 42.0335 31.1198 41.7516 30.7373 41.5022C31.7038 40.8728 33.669 39.537 34.9896 38.2635C35.2331 38.0286 35.4791 37.7758 35.7232 37.514C36.6404 37.9779 37.5097 38.5087 38.3197 39.1041C36.3602 40.5374 34.1478 41.6438 31.7626 42.3426Z" fill="white"/>
<path d="M1.26274 50.8725C1.29216 51.4195 1.5032 51.7976 1.89607 52.0068C2.09796 52.117 2.32553 52.172 2.57889 52.172C3.05243 52.172 3.45621 51.9747 3.79034 51.5801C4.12437 51.1855 4.36119 50.3842 4.50071 49.1765C4.28042 49.5252 4.00788 49.7702 3.68301 49.9115C3.35813 50.0529 3.00846 50.1236 2.63399 50.1236C1.87403 50.1236 1.27288 49.8871 0.830522 49.4141C0.388059 48.941 0.166992 48.3322 0.166992 47.5877C0.166992 46.8727 0.385414 46.2436 0.822257 45.7009C1.2591 45.1581 1.90345 44.8867 2.7551 44.8867C3.90407 44.8867 4.69709 45.404 5.13394 46.4386C5.37627 47.0072 5.49738 47.7189 5.49738 48.5738C5.49738 49.5386 5.35236 50.3933 5.06241 51.1382C4.58138 52.3782 3.76643 52.9982 2.61746 52.9982C1.84648 52.9982 1.26086 52.7962 0.860828 52.3924C0.460682 51.9886 0.260554 51.482 0.260554 50.8726H1.26274V50.8725ZM3.84269 48.8659C4.16757 48.6075 4.33001 48.1558 4.33001 47.5106C4.33001 46.9315 4.1841 46.5 3.89217 46.2159C3.60035 45.9319 3.22864 45.7898 2.77714 45.7898C2.29258 45.7898 1.90797 45.952 1.62343 46.2764C1.33889 46.6007 1.19662 47.0342 1.19662 47.5767C1.19662 48.0898 1.32136 48.4976 1.57108 48.8C1.82069 49.1024 2.21896 49.2535 2.76601 49.2535C3.15888 49.2535 3.51781 49.1243 3.84269 48.8659Z" fill="white"/>
<path d="M11.2987 46.1575C11.6511 46.8073 11.8273 47.6976 11.8273 48.8283C11.8273 49.9002 11.6676 50.7867 11.3483 51.488C10.8857 52.4939 10.1293 52.9968 9.07952 52.9968C8.13233 52.9968 7.42747 52.5858 6.96495 51.7633C6.57946 51.0769 6.38672 50.1554 6.38672 48.999C6.38672 48.1033 6.50243 47.3342 6.73364 46.6916C7.16673 45.4949 7.9506 44.8965 9.08492 44.8965C10.1055 44.8965 10.8434 45.3169 11.2987 46.1575ZM10.3012 51.4108C10.6064 50.9556 10.759 50.1076 10.759 48.8668C10.759 47.971 10.6486 47.234 10.4281 46.6559C10.2074 46.0776 9.77898 45.7886 9.14289 45.7886C8.55815 45.7886 8.13067 46.063 7.86046 46.6119C7.59013 47.1607 7.45502 47.9692 7.45502 49.0376C7.45502 49.8415 7.54142 50.4877 7.71422 50.9759C7.97893 51.7212 8.43131 52.0938 9.07103 52.0938C9.5859 52.0937 9.99586 51.866 10.3012 51.4108Z" fill="white"/>
<path d="M17.5711 46.1575C17.9236 46.8073 18.0998 47.6976 18.0998 48.8283C18.0998 49.9002 17.9401 50.7867 17.6207 51.488C17.1582 52.4939 16.4018 52.9968 15.352 52.9968C14.4048 52.9968 13.6999 52.5858 13.2374 51.7633C12.8519 51.0769 12.6592 50.1554 12.6592 48.999C12.6592 48.1033 12.7749 47.3342 13.0061 46.6916C13.4392 45.4949 14.2231 44.8965 15.3574 44.8965C16.3781 44.8965 17.1159 45.3169 17.5711 46.1575ZM16.5737 51.4108C16.8788 50.9556 17.0315 50.1076 17.0315 48.8668C17.0315 47.971 16.921 47.234 16.7005 46.6559C16.4799 46.0776 16.0514 45.7886 15.4153 45.7886C14.8306 45.7886 14.4031 46.063 14.1329 46.6119C13.8626 47.1607 13.7275 47.9692 13.7275 49.0376C13.7275 49.8415 13.8139 50.4877 13.9867 50.9759C14.2514 51.7212 14.7038 52.0938 15.3435 52.0938C15.8584 52.0937 16.2683 51.866 16.5737 51.4108Z" fill="white"/>
<path d="M19.6602 47.2005V46.4405C20.376 46.3708 20.8752 46.2543 21.1579 46.0909C21.4406 45.9275 21.6516 45.5412 21.7913 44.9316H22.5731V52.7841H21.5159V47.2004L19.6602 47.2005Z" fill="white"/>
<path d="M26.1016 46.9609H27.2525V48.1614H26.1016V46.9609ZM26.1016 51.581H27.2525V52.7815H26.1016V51.581Z" fill="white"/>
<path d="M28.7581 51.0129C29.0022 50.51 29.4785 50.0529 30.1871 49.6417L31.2444 49.0305C31.718 48.7552 32.0502 48.52 32.2412 48.3251C32.542 48.0198 32.6927 47.6704 32.6927 47.2768C32.6927 46.817 32.555 46.4519 32.2797 46.1816C32.0043 45.9113 31.6373 45.776 31.1784 45.776C30.4992 45.776 30.0293 46.0339 29.7687 46.5493C29.6292 46.8255 29.552 47.2084 29.5374 47.698H28.5297C28.5407 47.0115 28.6673 46.4516 28.9095 46.0185C29.339 45.2549 30.0971 44.873 31.1838 44.873C32.0869 44.873 32.7468 45.1173 33.1635 45.6055C33.58 46.0938 33.7885 46.6371 33.7885 47.2355C33.7885 47.8668 33.5664 48.4066 33.1222 48.8543C32.8651 49.1151 32.4044 49.4307 31.74 49.8015L30.9855 50.2201C30.6257 50.4183 30.3432 50.6074 30.1376 50.7872C29.7704 51.1065 29.5391 51.4608 29.4437 51.85H33.75V52.7861H28.3369C28.3735 52.107 28.514 51.5158 28.7581 51.0129Z" fill="white"/>
<path d="M39.5202 46.1575C39.8727 46.8073 40.0489 47.6976 40.0489 48.8283C40.0489 49.9002 39.8893 50.7867 39.5698 51.488C39.1073 52.4939 38.3509 52.9968 37.3011 52.9968C36.3539 52.9968 35.649 52.5858 35.1865 51.7633C34.8011 51.0769 34.6084 50.1554 34.6084 48.999C34.6084 48.1033 34.724 47.3342 34.9552 46.6916C35.3884 45.4949 36.1722 44.8965 37.3066 44.8965C38.3271 44.8965 39.065 45.3169 39.5202 46.1575ZM38.5228 51.4108C38.8281 50.9556 38.9806 50.1076 38.9806 48.8668C38.9806 47.971 38.8702 47.234 38.6495 46.6559C38.4289 46.0776 38.0005 45.7886 37.3645 45.7886C36.7797 45.7886 36.3522 46.063 36.082 46.6119C35.8116 47.1607 35.6765 47.9692 35.6765 49.0376C35.6765 49.8415 35.7629 50.4877 35.9358 50.9759C36.2005 51.7212 36.6529 52.0938 37.2926 52.0938C37.8076 52.0937 38.2174 51.866 38.5228 51.4108Z" fill="white"/>
<path d="M41.6074 47.2005V46.4405C42.3233 46.3708 42.8224 46.2543 43.1053 46.0909C43.3879 45.9275 43.5989 45.5412 43.7385 44.9316H44.5205V52.7841H43.4631V47.2004L41.6074 47.2005Z" fill="white"/>
<path d="M48.1968 50.7747C48.263 51.34 48.5253 51.731 48.9843 51.9477C49.2193 52.0578 49.4911 52.1129 49.7994 52.1129C50.3868 52.1129 50.8218 51.9256 51.1045 51.5511C51.3871 51.1767 51.5286 50.7619 51.5286 50.3066C51.5286 49.756 51.3606 49.3301 51.0247 49.0291C50.6888 48.728 50.2859 48.5775 49.816 48.5775C49.4745 48.5775 49.1818 48.6436 48.9377 48.7757C48.6935 48.9078 48.4852 49.0914 48.3127 49.3264L47.4536 49.2768L48.054 45.0312H52.1508V45.9894H48.7972L48.4612 48.1811C48.6448 48.0415 48.8191 47.937 48.9843 47.8671C49.278 47.746 49.6177 47.6855 50.0031 47.6855C50.7262 47.6855 51.3394 47.9186 51.8422 48.3848C52.3452 48.851 52.5967 49.4421 52.5967 50.158C52.5967 50.9033 52.3662 51.5604 51.9056 52.1294C51.4448 52.6985 50.7097 52.9829 49.7001 52.9829C49.0576 52.9829 48.4895 52.802 47.9958 52.4405C47.5021 52.079 47.2257 51.5237 47.167 50.7748L48.1968 50.7747Z" fill="white"/>
</svg>
