<svg width="192" height="25" viewBox="0 0 192 25" fill="none" xmlns="http://www.w3.org/2000/svg">
<g clip-path="url(#clip0_101_7171)">
<path d="M12.4854 0.0742188C5.66534 0.0742188 0.136719 5.6311 0.136719 12.4857C0.136719 18.744 4.74605 23.9178 10.7382 24.7712V16.2666H7.81839V12.8498H10.7382V10.3302C10.7382 7.40601 12.5057 5.81386 15.0873 5.81386C16.3239 5.81386 17.3869 5.90689 17.6965 5.9486V9.00448L15.9059 9.0053C14.502 9.0053 14.2301 9.67954 14.2301 10.6685V12.8498H17.5785L17.1424 16.2666H14.2304V24.7715C20.2236 23.9192 24.834 18.7448 24.834 12.4857C24.834 5.6311 19.3054 0.0742188 12.4854 0.0742188Z" fill="white"/>
</g>
<g clip-path="url(#clip1_101_7171)">
<path d="M69.2226 24.834H59.7484C55.5513 24.834 52.1367 21.4195 52.1367 17.2226V7.74842C52.1367 3.55125 55.5513 0.136719 59.7484 0.136719H69.2226C73.4195 0.136719 76.834 3.55125 76.834 7.74842V17.2226C76.834 21.4195 73.4195 24.834 69.2226 24.834ZM59.7484 2.05762C56.6105 2.05762 54.0576 4.61049 54.0576 7.74842V17.2226C54.0576 20.3602 56.6105 22.9131 59.7484 22.9131H69.2226C72.3602 22.9131 74.9131 20.3602 74.9131 17.2226V7.74842C74.9131 4.61049 72.3602 2.05762 69.2226 2.05762H59.7484Z" fill="white"/>
<path d="M64.5561 19.4754C60.7406 19.4754 57.6367 16.3712 57.6367 12.5561C57.6367 8.74089 60.7409 5.63672 64.5561 5.63672C68.3712 5.63672 71.4754 8.74089 71.4754 12.5561C71.4754 16.3712 68.3715 19.4754 64.5561 19.4754ZM64.5561 7.55762C61.7999 7.55762 59.5576 9.79985 59.5576 12.5561C59.5576 15.3123 61.7999 17.5545 64.5561 17.5545C67.3123 17.5545 69.5545 15.3123 69.5545 12.5561C69.5548 9.79985 67.3126 7.55762 64.5561 7.55762Z" fill="white"/>
<path d="M71.4981 6.95128C72.2403 6.95128 72.8419 6.34964 72.8419 5.60748C72.8419 4.86531 72.2403 4.26367 71.4981 4.26367C70.7559 4.26367 70.1543 4.86531 70.1543 5.60748C70.1543 6.34964 70.7559 6.95128 71.4981 6.95128Z" fill="white"/>
</g>
<g clip-path="url(#clip2_101_7171)">
<path d="M104.543 8.34593H109.663V24.8135H104.543V8.34593ZM107.103 0.160156C108.739 0.160156 110.069 1.48997 110.069 3.12904C110.069 4.76647 108.739 6.09628 107.103 6.09628C105.463 6.09628 104.137 4.76647 104.137 3.12904C104.137 1.48997 105.463 0.160156 107.103 0.160156Z" fill="white"/>
<path d="M112.873 8.34528H117.782V10.5971H117.852C118.536 9.30189 120.206 7.9375 122.695 7.9375C127.878 7.9375 128.834 11.3471 128.834 15.7811V24.8129H123.718V16.8046C123.718 14.8944 123.685 12.4382 121.059 12.4382C118.395 12.4382 117.989 14.5201 117.989 16.6674V24.8129H112.873V8.34528Z" fill="white"/>
</g>
<path d="M190.456 4.03046C190.052 2.51643 188.859 1.32381 187.345 0.919104C184.601 0.183594 173.596 0.183594 173.596 0.183594C173.596 0.183594 162.591 0.183594 159.847 0.919104C158.333 1.32381 157.14 2.51643 156.736 4.03046C156 6.77465 156 12.5008 156 12.5008C156 12.5008 156 18.2269 156.736 20.9711C157.14 22.4851 158.333 23.6777 159.847 24.0824C162.591 24.8179 173.596 24.8179 173.596 24.8179C173.596 24.8179 184.601 24.8179 187.345 24.0824C188.859 23.6777 190.052 22.4851 190.456 20.9711C191.192 18.2269 191.192 12.5008 191.192 12.5008C191.192 12.5008 191.192 6.77465 190.456 4.03046ZM170.077 17.7795V7.22197L179.22 12.5008L170.077 17.7795Z" fill="white"/>
<defs>
<clipPath id="clip0_101_7171">
<rect width="25" height="25" fill="white"/>
</clipPath>
<clipPath id="clip1_101_7171">
<rect width="25" height="25" fill="white" transform="translate(52)"/>
</clipPath>
<clipPath id="clip2_101_7171">
<rect width="25" height="25" fill="white" transform="translate(104)"/>
</clipPath>
</defs>
</svg>
