<svg width="55" height="55" viewBox="0 0 55 55" fill="none" xmlns="http://www.w3.org/2000/svg">
<path d="M9.45703 5.31641H22.9117" stroke="#44BE78" stroke-width="2" stroke-miterlimit="10" stroke-linecap="round" stroke-linejoin="round"/>
<path d="M9.45703 9.62305H22.9117" stroke="#44BE78" stroke-width="2" stroke-miterlimit="10" stroke-linecap="round" stroke-linejoin="round"/>
<mask id="mask0_101_7204" style="mask-type:luminance" maskUnits="userSpaceOnUse" x="0" y="0" width="55" height="55">
<path d="M54 54V1H1V54H54Z" fill="white" stroke="white" stroke-width="2"/>
</mask>
<g mask="url(#mask0_101_7204)">
<path d="M45.7134 8.96853L38.2052 1.46027C38.0144 1.26949 37.7916 1.11899 37.5508 1.00921V7.45323C37.5508 8.65152 38.5222 9.62305 39.7205 9.62305H46.1645C46.0547 9.3821 45.9042 9.15931 45.7134 8.96853Z" stroke="#44BE78" stroke-width="2" stroke-miterlimit="10" stroke-linecap="round" stroke-linejoin="round"/>
<path d="M25.4668 30.2394V24.9749C25.4668 24.7145 25.6779 24.5035 25.9384 24.5035H46.1426C46.4029 24.5035 46.6141 24.7145 46.6141 24.9749V30.2394C46.6141 30.4997 46.4029 30.7109 46.1426 30.7109H25.9384C25.6779 30.7109 25.4668 30.4997 25.4668 30.2394Z" stroke="#44BE78" stroke-width="2" stroke-miterlimit="10" stroke-linecap="round" stroke-linejoin="round"/>
<path d="M46.3673 16.8596V10.5494C46.3673 9.95673 46.132 9.38847 45.7128 8.96942L38.2047 1.46117C37.7855 1.04212 37.2171 0.806753 36.6246 0.806753H6.60224C5.47033 0.806753 4.55273 1.72424 4.55273 2.85626V52.1458C4.55273 53.2778 5.47033 54.1953 6.60224 54.1953H18.9728" stroke="#44BE78" stroke-width="2" stroke-miterlimit="10" stroke-linecap="round" stroke-linejoin="round"/>
<path d="M48.1312 54.1953H23.9466C22.6699 54.1953 21.6348 53.1602 21.6348 51.8835V22.9378C21.6348 21.6611 22.6699 20.626 23.9466 20.626H48.1312C49.4082 20.626 50.4431 21.6611 50.4431 22.9378V51.8835C50.4431 53.1602 49.4082 54.1953 48.1312 54.1953Z" stroke="#44BE78" stroke-width="2" stroke-miterlimit="10" stroke-linecap="round" stroke-linejoin="round"/>
<path d="M29.2395 39.6797H26.3117C25.845 39.6797 25.4668 39.3015 25.4668 38.8348V35.907C25.4668 35.4404 25.845 35.0622 26.3117 35.0622H29.2395C29.7061 35.0622 30.0843 35.4404 30.0843 35.907V38.8348C30.0843 39.3015 29.7061 39.6797 29.2395 39.6797Z" stroke="#44BE78" stroke-width="2" stroke-miterlimit="10" stroke-linecap="round" stroke-linejoin="round"/>
<path d="M37.5031 39.6797H34.5753C34.1087 39.6797 33.7305 39.3015 33.7305 38.8348V35.907C33.7305 35.4404 34.1087 35.0622 34.5753 35.0622H37.5031C37.9698 35.0622 38.348 35.4404 38.348 35.907V38.8348C38.348 39.3015 37.9698 39.6797 37.5031 39.6797Z" stroke="#44BE78" stroke-width="2" stroke-miterlimit="10" stroke-linecap="round" stroke-linejoin="round"/>
<path d="M45.7686 39.6797H42.841C42.3743 39.6797 41.9961 39.3015 41.9961 38.8348V35.907C41.9961 35.4404 42.3743 35.0622 42.841 35.0622H45.7686C46.2354 35.0622 46.6136 35.4404 46.6136 35.907V38.8348C46.6136 39.3015 46.2354 39.6797 45.7686 39.6797Z" stroke="#44BE78" stroke-width="2" stroke-miterlimit="10" stroke-linecap="round" stroke-linejoin="round"/>
<path d="M29.2395 48.1035H26.3117C25.845 48.1035 25.4668 47.7253 25.4668 47.2586V44.3309C25.4668 43.8642 25.845 43.486 26.3117 43.486H29.2395C29.7061 43.486 30.0843 43.8642 30.0843 44.3309V47.2586C30.0843 47.7253 29.7061 48.1035 29.2395 48.1035Z" stroke="#44BE78" stroke-width="2" stroke-miterlimit="10" stroke-linecap="round" stroke-linejoin="round"/>
<path d="M37.5031 48.1035H34.5753C34.1087 48.1035 33.7305 47.7253 33.7305 47.2586V44.3309C33.7305 43.8642 34.1087 43.486 34.5753 43.486H37.5031C37.9698 43.486 38.348 43.8642 38.348 44.3309V47.2586C38.348 47.7253 37.9698 48.1035 37.5031 48.1035Z" stroke="#44BE78" stroke-width="2" stroke-miterlimit="10" stroke-linecap="round" stroke-linejoin="round"/>
<path d="M45.7686 48.1035H42.841C42.3743 48.1035 41.9961 47.7253 41.9961 47.2586V44.3309C41.9961 43.8642 42.3743 43.486 42.841 43.486H45.7686C46.2354 43.486 46.6136 43.8642 46.6136 44.3309V47.2586C46.6136 47.7253 46.2354 48.1035 45.7686 48.1035Z" stroke="#44BE78" stroke-width="2" stroke-miterlimit="10" stroke-linecap="round" stroke-linejoin="round"/>
</g>
</svg>
