<svg width="59" height="59" viewBox="0 0 59 59" fill="none" xmlns="http://www.w3.org/2000/svg">
<path d="M44.0897 57.459C44.3485 53.8583 47.3518 51.0176 51.0185 51.0176C54.8552 51.0176 57.9655 54.1277 57.9655 57.9645H30.1777C30.1777 54.1278 33.288 51.0176 37.1247 51.0176C40.8124 51.0176 43.8244 53.8893 44.0571 57.5127" stroke="#44BE78" stroke-width="2" stroke-miterlimit="22.9256" stroke-linecap="round" stroke-linejoin="round"/>
<path fill-rule="evenodd" clip-rule="evenodd" d="M37.1239 42.3633C39.0343 42.3633 40.5973 43.9263 40.5973 45.8367V46.9663C40.5973 48.8767 39.0343 50.4398 37.1239 50.4398C35.2135 50.4398 33.6504 48.8767 33.6504 46.9663V45.8367C33.6505 43.9263 35.2136 42.3633 37.1239 42.3633Z" stroke="#44BE78" stroke-width="2" stroke-miterlimit="22.9256" stroke-linecap="round" stroke-linejoin="round"/>
<path fill-rule="evenodd" clip-rule="evenodd" d="M51.0184 42.3633C52.9288 42.3633 54.4919 43.9263 54.4919 45.8367V46.9663C54.4919 48.8767 52.9287 50.4398 51.0184 50.4398C49.108 50.4398 47.5449 48.8767 47.5449 46.9663V45.8367C47.5449 43.9263 49.108 42.3633 51.0184 42.3633Z" stroke="#44BE78" stroke-width="2" stroke-miterlimit="22.9256" stroke-linecap="round" stroke-linejoin="round"/>
<path fill-rule="evenodd" clip-rule="evenodd" d="M44.0711 26.7324C45.9815 26.7324 47.5446 28.301 47.5446 30.218V31.3516C47.5446 33.2686 45.9815 34.8372 44.0711 34.8372C42.1607 34.8372 40.5977 33.2687 40.5977 31.3516V30.218C40.5977 28.3009 42.1607 26.7324 44.0711 26.7324Z" stroke="#44BE78" stroke-width="2" stroke-miterlimit="22.9256" stroke-linecap="round" stroke-linejoin="round"/>
<path d="M37.125 42.3629C37.125 38.5263 40.2353 35.416 44.0719 35.416C47.9086 35.416 51.0189 38.5263 51.0189 42.3629" stroke="#44BE78" stroke-width="2" stroke-miterlimit="22.9256" stroke-linecap="round" stroke-linejoin="round"/>
<path d="M30.2829 55.6492H1V1H33.2921L43.8604 11.5683V26.7385" stroke="#44BE78" stroke-width="2" stroke-miterlimit="22.9256" stroke-linecap="round" stroke-linejoin="round"/>
<path d="M43.6843 11.5672H33.293V1.17578" stroke="#44BE78" stroke-width="2" stroke-miterlimit="22.9256" stroke-linecap="round" stroke-linejoin="round"/>
<path d="M14.5449 24.2676H33.2934" stroke="#44BE78" stroke-width="2" stroke-miterlimit="22.9256" stroke-linecap="round" stroke-linejoin="round"/>
<path d="M9.33398 29.4375H22.4302" stroke="#44BE78" stroke-width="2" stroke-miterlimit="22.9256" stroke-linecap="round" stroke-linejoin="round"/>
<path d="M9.33398 34.6055H33.2922" stroke="#44BE78" stroke-width="2" stroke-miterlimit="22.9256" stroke-linecap="round" stroke-linejoin="round"/>
<path d="M9.33398 39.7734H22.4302" stroke="#44BE78" stroke-width="2" stroke-miterlimit="22.9256" stroke-linecap="round" stroke-linejoin="round"/>
<path d="M9.33398 11.5684H22.4302" stroke="#44BE78" stroke-width="2" stroke-miterlimit="22.9256" stroke-linecap="round" stroke-linejoin="round"/>
<path d="M9.33398 19.0996H33.2922" stroke="#44BE78" stroke-width="2" stroke-miterlimit="22.9256" stroke-linecap="round" stroke-linejoin="round"/>
<path d="M9.33203 24.2676H9.33375" stroke="#44BE78" stroke-width="2" stroke-miterlimit="2.6131" stroke-linecap="round" stroke-linejoin="round"/>
</svg>
