<svg width="60" height="60" viewBox="0 0 60 60" fill="none" xmlns="http://www.w3.org/2000/svg">
<path d="M9.76377 18.5275C14.6039 18.5275 18.5275 14.6039 18.5275 9.76377C18.5275 4.92367 14.6039 1 9.76377 1C4.92367 1 1 4.92367 1 9.76377C1 14.6039 4.92367 18.5275 9.76377 18.5275Z" stroke="#44BE78" stroke-width="2" stroke-miterlimit="10"/>
<path d="M9.76283 10.6286C8.33075 10.6286 7.16992 9.46767 7.16992 8.03571V7.17494C7.16992 5.74285 8.33086 4.58203 9.76283 4.58203C11.1949 4.58203 12.3557 5.74297 12.3557 7.17494V8.03571C12.3557 9.46779 11.1949 10.6286 9.76283 10.6286Z" stroke="#44BE78" stroke-width="2" stroke-miterlimit="10"/>
<path d="M3.96484 16.281C5.54137 14.9817 7.56169 14.2012 9.76424 14.2012C11.9676 14.2012 13.9885 14.9821 15.5652 16.2823" stroke="#44BE78" stroke-width="2" stroke-miterlimit="10"/>
<path d="M55.5336 3.42071C57.2073 5.01681 58.2502 7.26854 58.2502 9.76388C58.2502 14.604 54.3266 18.5277 49.4864 18.5277C44.6463 18.5277 40.7227 14.604 40.7227 9.76388C40.7227 4.92374 44.6463 1 49.4864 1C51.1239 1 52.6565 1.4491 53.9678 2.23086" stroke="#44BE78" stroke-width="2" stroke-miterlimit="10"/>
<path d="M8.63107 37.1523C7.67815 34.661 7.15625 31.9567 7.15625 29.1304C7.15625 26.3045 7.67815 23.6005 8.63083 21.1094" stroke="#44BE78" stroke-width="2" stroke-miterlimit="10" stroke-dasharray="15 15"/>
<path d="M37.1782 50.5762C34.6868 51.529 31.9826 52.051 29.1563 52.051C26.3301 52.051 23.626 51.5291 21.1348 50.5763" stroke="#44BE78" stroke-width="2" stroke-miterlimit="10" stroke-dasharray="15 15"/>
<path d="M50.4297 22.1562C51.4925 24.7677 52.078 27.6243 52.078 30.6175C52.078 33.4438 51.556 36.1481 50.6032 38.6393" stroke="#44BE78" stroke-width="2" stroke-miterlimit="10" stroke-dasharray="15 15"/>
<path d="M22.0547 8.60372C24.5459 7.65092 27.2503 7.12891 30.0766 7.12891C32.9028 7.12891 35.6071 7.65092 38.0984 8.60372" stroke="#44BE78" stroke-width="2" stroke-miterlimit="10" stroke-dasharray="15 15"/>
<path d="M49.4855 10.6286C48.0534 10.6286 46.8926 9.46767 46.8926 8.03571V7.17494C46.8926 5.74285 48.0535 4.58203 49.4855 4.58203C50.9175 4.58203 52.0784 5.74297 52.0784 7.17494V8.03571C52.0784 9.46779 50.9175 10.6286 49.4855 10.6286Z" stroke="#44BE78" stroke-width="2" stroke-miterlimit="10"/>
<path d="M43.6855 16.281C45.2621 14.9817 47.2824 14.2012 49.4849 14.2012C51.6883 14.2012 53.7092 14.9821 55.2859 16.2823" stroke="#44BE78" stroke-width="2" stroke-miterlimit="10"/>
<path d="M17.0016 44.524C17.9644 45.9311 18.5275 47.6333 18.5275 49.4669C18.5275 54.307 14.6039 58.2307 9.76377 58.2307C4.92362 58.2307 1 54.307 1 49.4669C1 44.6267 4.92362 40.7031 9.76377 40.7031C12.1006 40.7031 14.2239 41.6178 15.7951 43.1086" stroke="#44BE78" stroke-width="2" stroke-miterlimit="10"/>
<path d="M9.76283 50.3317C8.33075 50.3317 7.16992 49.1708 7.16992 47.7388V46.8781C7.16992 45.446 8.33086 44.2852 9.76283 44.2852C11.1949 44.2852 12.3557 45.4461 12.3557 46.8781V47.7388C12.3557 49.1709 11.1949 50.3317 9.76283 50.3317Z" stroke="#44BE78" stroke-width="2" stroke-miterlimit="10"/>
<path d="M3.96484 55.9822C5.54137 54.6828 7.56169 53.9023 9.76424 53.9023C11.9676 53.9023 13.9885 54.6833 15.5652 55.9835" stroke="#44BE78" stroke-width="2" stroke-miterlimit="10"/>
<path d="M49.4864 58.2307C54.3265 58.2307 58.2502 54.307 58.2502 49.4669C58.2502 44.6268 54.3265 40.7031 49.4864 40.7031C44.6463 40.7031 40.7227 44.6268 40.7227 49.4669C40.7227 54.307 44.6463 58.2307 49.4864 58.2307Z" stroke="#44BE78" stroke-width="2" stroke-miterlimit="10"/>
<path d="M49.4855 50.3317C48.0534 50.3317 46.8926 49.1708 46.8926 47.7388V46.8781C46.8926 45.446 48.0535 44.2852 49.4855 44.2852C50.9175 44.2852 52.0784 45.4461 52.0784 46.8781V47.7388C52.0784 49.1709 50.9175 50.3317 49.4855 50.3317Z" stroke="#44BE78" stroke-width="2" stroke-miterlimit="10"/>
<path d="M43.6855 55.9822C45.2621 54.6828 47.2824 53.9023 49.4849 53.9023C51.6883 53.9023 53.7092 54.6833 55.2859 55.9835" stroke="#44BE78" stroke-width="2" stroke-miterlimit="10"/>
<path d="M29.6182 33.9083C32.0038 33.9083 33.9376 31.9745 33.9376 29.5889C33.9376 27.2034 32.0038 25.2695 29.6182 25.2695C27.2327 25.2695 25.2988 27.2034 25.2988 29.5889C25.2988 31.9745 27.2327 33.9083 29.6182 33.9083Z" stroke="#44BE78" stroke-width="2" stroke-miterlimit="10"/>
<path d="M38.2557 29.5892C38.2557 28.7105 38.1236 27.8626 37.8797 27.0637L39.4585 25.9022L37.7307 22.9096L35.9322 23.6976C34.7784 22.4613 33.2665 21.5653 31.5614 21.1728L31.3447 19.2227H27.8892L27.6725 21.1728C25.9672 21.5653 24.4553 22.4613 23.3016 23.6976L21.5031 22.9096L19.7754 25.9022L21.3542 27.0637C21.1103 27.8627 20.9781 28.7105 20.9781 29.5892C20.9781 30.4679 21.1103 31.3157 21.3542 32.1147L19.7754 33.2762L21.5031 36.2688L23.3016 35.4809C24.4554 36.7171 25.9673 37.6132 27.6725 38.0056L27.8892 39.9558H31.3447L31.5614 38.0056C33.2667 37.6132 34.7786 36.717 35.9322 35.4809L37.7307 36.2688L39.4585 33.2762L37.8797 32.1147C38.1236 31.3157 38.2557 30.4681 38.2557 29.5892Z" stroke="#44BE78" stroke-width="2" stroke-miterlimit="10"/>
</svg>
