<svg width="97" height="69" viewBox="0 0 97 69" fill="none" xmlns="http://www.w3.org/2000/svg">
<path d="M48.535 14.2012C59.4588 14.2116 68.3051 23.1287 68.2948 34.1183C68.2844 45.1079 59.4207 54.0076 48.497 53.9972C37.5871 53.9868 28.7454 45.0905 28.7373 34.1137C28.7269 23.1264 37.571 14.2116 48.4924 14.2012C48.5062 14.2012 48.5201 14.2012 48.535 14.2012ZM41.8859 44.3162C46.1742 42.7827 50.8578 42.7816 55.1473 44.3139L55.7638 41.9806C56.0483 41.9806 56.3087 41.9736 56.5714 41.9829C56.8422 41.9609 57.1141 41.976 57.3802 42.0304C57.1947 42.9983 56.9609 43.9569 56.6774 44.9004C57.4079 45.3061 58.1338 45.6736 58.8239 46.1001C59.5141 46.5255 60.1673 47.0054 60.8345 47.4609C68.8536 40.0681 68.3535 27.4939 60.8033 20.7201C59.529 21.7285 58.1407 22.5828 56.6671 23.2632C56.947 24.2612 57.2143 25.2174 57.3906 26.2038H55.7488C55.6485 25.8063 55.5575 25.4261 55.4573 25.0494C55.3709 24.6553 55.2568 24.2693 55.1139 23.8926C50.8348 25.418 46.1639 25.4156 41.8859 23.8856L41.2672 26.2259C40.9826 26.2259 40.7199 26.227 40.4583 26.2259C40.191 26.2235 39.9237 26.2189 39.6057 26.2143L40.3512 23.255C38.881 22.577 37.4973 21.725 36.2287 20.7143C28.2603 28.0248 28.5956 40.5978 36.2287 47.4771C37.5065 46.4675 38.8971 45.6121 40.3719 44.9294C40.0758 43.9639 39.8304 42.9821 39.638 41.991H41.2752L41.8859 44.3162ZM54.5793 22.3393C54.5701 22.2744 54.5563 22.2107 54.539 22.1469C54.0367 20.785 53.3477 19.5007 52.4939 18.33C51.9443 17.5615 51.2507 16.9077 50.4523 16.4058C49.3381 15.679 47.9152 15.6396 46.763 16.3038C46.0222 16.7223 45.3689 17.2809 44.84 17.9498C43.9897 19.0069 43.2973 20.1834 42.7823 21.441C42.6613 21.7227 42.5507 22.009 42.4216 22.3266C46.3517 23.7454 50.6481 23.75 54.5793 22.3393ZM42.4412 45.859C42.4689 45.9541 42.4804 46.0097 42.5 46.0607C42.9689 47.3241 43.5957 48.5215 44.3653 49.6261C44.8688 50.3552 45.4853 50.9997 46.1915 51.5329C47.6744 52.6213 49.2828 52.6352 50.7806 51.5746C51.2933 51.206 51.7565 50.7714 52.1586 50.2834C53.1817 49.0095 53.9883 47.5734 54.5448 46.034C54.5609 45.9749 54.5713 45.9147 54.577 45.8544C50.6516 44.4495 46.3655 44.4518 42.4412 45.859ZM53.1426 51.7126C55.4665 51.1237 57.6452 50.0585 59.5394 48.5818C58.499 47.7681 57.3699 47.0761 56.1751 46.5186C55.7211 47.4493 55.304 48.3569 54.8409 49.2402C54.3627 50.1211 53.7935 50.9499 53.1426 51.7126ZM43.9079 51.7195C43.2512 50.9661 42.6786 50.1408 42.2016 49.2599C41.7292 48.3697 41.3132 47.4505 40.8593 46.5174C39.6633 47.0761 38.5331 47.7681 37.4927 48.5818C39.3937 50.0597 41.5771 51.1284 43.9079 51.7195ZM56.1152 21.6728C56.9897 21.3761 59.1834 20.0084 59.4887 19.5725C57.6026 18.112 55.4377 17.0584 53.1287 16.4765C54.4618 18.0124 55.3755 19.78 56.1152 21.6728ZM43.8757 16.4893C41.5644 17.0735 39.3972 18.1329 37.5111 19.5992C38.1886 20.2332 40.2855 21.499 40.9261 21.6589C41.6128 19.7812 42.6094 18.0332 43.8757 16.4893Z" fill="white"/>
<path d="M59.0542 59.5225C59.0577 60.1252 58.9298 60.721 58.6798 61.2693C58.2085 62.3275 57.1831 63.0253 56.0321 63.0717C55.6208 63.1099 55.206 63.0763 54.8073 62.9708C53.7842 62.7147 52.9696 61.9369 52.6597 60.9227C52.3486 60.0104 52.344 59.0206 52.6458 58.106C53.0203 56.8658 54.1229 55.9918 55.4088 55.9164C56.0966 55.8411 56.7914 55.9802 57.3985 56.314C58.2097 56.7742 58.7731 57.5751 58.9344 58.4978C59.0012 58.8328 59.0162 59.1805 59.0542 59.5225ZM54.7658 59.4842L54.8234 59.4888C54.8234 59.7531 54.8062 60.0186 54.8269 60.2817C54.8304 60.743 54.9283 61.1974 55.1138 61.6193C55.2198 61.8569 55.4525 62.0122 55.7106 62.0192C55.9825 62.0377 56.2372 61.8813 56.3455 61.6297C56.4376 61.4454 56.5045 61.2495 56.5436 61.0467C56.6992 60.1275 56.7165 59.1898 56.5943 58.266C56.554 57.9716 56.4768 57.6818 56.3662 57.4059C56.2809 57.1451 56.0367 56.9701 55.7636 56.9747C55.4802 56.9643 55.2209 57.13 55.1092 57.3908C55.032 57.5323 54.979 57.6853 54.9525 57.8441C54.8788 58.39 54.8258 58.9371 54.7658 59.4842Z" fill="white"/>
<path d="M51.7973 59.5213C51.8353 60.1333 51.7154 60.7442 51.4504 61.2959C50.9596 62.3727 49.8939 63.0659 48.7175 63.0775C48.191 63.1169 47.6621 63.0323 47.1724 62.8317C46.3429 62.4886 45.7092 61.792 45.443 60.9308C45.1366 60.0301 45.1273 59.0542 45.4154 58.1466C45.7864 56.8518 46.9489 55.9489 48.2877 55.9141C49.3351 55.862 50.2545 56.1506 50.9688 56.9643C51.4585 57.5357 51.7477 58.2521 51.7926 59.0055C51.8088 59.1747 51.7973 59.3486 51.7973 59.5213ZM49.4745 59.5839C49.4434 59.097 49.4422 58.7261 49.3904 58.3645C49.3466 58.0469 49.2705 57.7339 49.1634 57.4326C49.0816 57.1567 48.827 56.9689 48.5412 56.9712C48.244 56.9585 47.9732 57.1451 47.8776 57.4291C47.7727 57.6586 47.7047 57.9043 47.6771 58.1547C47.6345 58.8988 47.6091 59.6465 47.6195 60.3918C47.6114 60.8195 47.7082 61.2437 47.8995 61.6262C48.0492 61.967 48.4456 62.1212 48.7855 61.9705C48.9272 61.9068 49.0436 61.7966 49.1138 61.6564C49.2233 61.4674 49.2959 61.26 49.327 61.0432C49.3973 60.5193 49.4342 59.993 49.4722 59.5839H49.4745Z" fill="white"/>
<path d="M32.3145 57.5277C32.3525 57.544 32.3928 57.5556 32.4331 57.5648C32.8318 57.559 33.1602 57.8801 33.1659 58.2812C33.1659 58.3055 33.1659 58.3298 33.1636 58.353C33.197 58.8225 32.879 59.2432 32.4216 59.3371C32.2638 59.3638 32.1025 59.3719 31.9423 59.3615C31.4377 59.3499 31.024 58.9558 30.9837 58.4492C30.8904 57.7967 31.13 57.1417 31.6209 56.7048C32.1393 56.2411 32.7984 55.9676 33.4908 55.9282C34.3262 55.8122 35.1765 55.9815 35.9058 56.408C36.7112 56.8717 37.1052 57.8233 36.8644 58.7251C36.7469 59.1899 36.4438 59.5852 36.0268 59.817C35.5509 60.0952 35.0417 60.3096 34.5117 60.458C34.1291 60.5762 33.7409 60.6805 33.3664 60.8219C33.015 60.9216 32.7131 61.1511 32.5207 61.4641C32.5956 61.4456 32.6693 61.4235 32.7419 61.3969C33.3583 61.1048 34.0577 61.041 34.7167 61.2172C34.9264 61.2752 35.1396 61.3215 35.3539 61.3575C35.8182 61.427 36.0037 61.2728 36.059 60.793C36.0671 60.7246 36.0705 60.6562 36.0809 60.5438C36.4369 60.5194 36.7941 60.5206 37.1501 60.5484C37.1916 61.1755 37.1916 61.7771 36.8863 62.3358C36.6017 62.8585 36.1109 63.0266 35.5659 63.0741C35.0394 63.1089 34.5105 63.0451 34.007 62.8852C33.6775 62.7901 33.3491 62.6835 33.0138 62.6139C32.6832 62.5456 32.341 62.5027 32.1347 62.869H30.9975C30.948 62.3474 31.0448 61.8211 31.2798 61.3528C31.5748 60.815 32.0011 60.3618 32.5184 60.0361C32.9044 59.7683 33.3099 59.5284 33.704 59.2734C33.8503 59.183 33.992 59.0844 34.1268 58.9778C34.4218 58.7471 34.5865 58.3866 34.5693 58.0111C34.5762 57.6668 34.3734 57.3527 34.0577 57.2183C33.4712 56.9435 32.7742 57.0664 32.3145 57.5277Z" fill="white"/>
<path d="M39.6909 56.1042C39.7047 56.3256 39.7151 56.5018 39.7278 56.722C39.7727 56.6861 39.8165 56.6455 39.8557 56.6026C40.2797 56.0196 40.8719 55.8828 41.5332 55.9987C41.8673 56.0729 42.1969 56.1691 42.5195 56.285C42.7153 56.3453 42.9101 56.4137 43.1036 56.4821C43.2638 56.547 43.4458 56.5088 43.5679 56.387L43.6832 56.1181H44.5496C44.6107 56.3082 44.6014 56.5134 44.5231 56.6965C44.3215 57.159 44.1221 57.6238 43.8871 58.0689C43.5864 58.6369 43.2407 59.1817 42.9331 59.7462C42.4953 60.5993 42.2637 61.5428 42.2545 62.5026C42.2499 62.615 42.2429 62.7274 42.236 62.8596H40.0204C39.9663 62.6011 39.9582 62.3345 39.9962 62.0725C40.0619 61.085 40.487 60.1565 41.1922 59.4657C41.6576 59.0055 42.1416 58.565 42.6151 58.1141C42.7211 58.0121 42.819 57.902 42.9792 57.7351C42.8432 57.7664 42.7856 57.7734 42.7315 57.7919C42.2579 57.9345 41.7567 57.9553 41.2728 57.8545C41.0147 57.8046 40.7543 57.7687 40.4928 57.749C40.1333 57.705 39.8073 57.9623 39.7635 58.3239C39.7635 58.3274 39.7623 58.3309 39.7623 58.3332C39.7301 58.5024 39.7093 58.6728 39.7001 58.8455C39.6897 58.9568 39.6897 59.0704 39.6828 59.2002H38.4961V56.1181C38.6931 56.1135 38.8832 56.1065 39.0733 56.1031C39.2646 56.1031 39.4605 56.1042 39.6909 56.1042Z" fill="white"/>
<path d="M60.8361 56.985C61.4733 56.883 62.107 56.7868 62.4307 56.1191H64.1498C64.1555 56.2466 64.1636 56.3684 64.1647 56.4912C64.1659 58.056 64.1659 59.622 64.1647 61.1868C64.1647 61.2679 64.1624 61.3479 64.1647 61.4291C64.1763 61.7814 64.2846 61.8985 64.6417 61.9205C64.8111 61.931 64.9816 61.9228 65.1694 61.9228C65.2063 62.2231 65.2155 62.5256 65.1982 62.827C64.9252 62.8953 61.4053 62.9185 60.8419 62.8583V61.9646C61.1576 61.8626 61.524 62.0156 61.8811 61.7803C61.9272 61.6574 61.9572 61.5299 61.971 61.4001C61.9802 60.307 61.9768 59.2128 61.9756 58.1198C61.9687 58.063 61.9572 58.0073 61.9399 57.9529H60.835L60.8361 56.985Z" fill="white"/>
<path d="M48.3056 5.85352L48.8103 7.92486L48.884 7.9237L49.4428 5.88597H50.8231V9.40737H49.9671V6.91411C49.656 7.7197 49.4682 8.5589 49.2136 9.39578H48.4255L47.816 6.86195L47.7434 6.86427C47.7399 7.06943 47.7353 7.27459 47.733 7.47976C47.7307 7.68492 47.7296 7.89472 47.7273 8.10221C47.7249 8.32128 47.7284 8.54035 47.7192 8.75943C47.71 8.96343 47.6869 9.16744 47.6673 9.40274L46.9058 9.36101C46.8309 9.10948 46.8332 6.38439 46.9069 5.85352H48.3056Z" fill="white"/>
<path d="M66.1668 16.9278L65.4178 16.2532L65.7232 13.9616L65.6633 13.9361L64.4028 15.3247L63.6631 14.6385L66.0435 11.998L66.782 12.6912L66.4652 14.9863L66.5216 15.0175L67.7971 13.6173L68.5483 14.2943L66.1668 16.9278Z" fill="white"/>
<path d="M33.588 12.4159L32.4981 10.923L33.3046 10.3145L35.4073 13.1752L34.5985 13.7872L32.3449 13.0001C32.7297 13.5855 33.1226 14.0677 33.4936 14.5997L32.6882 15.2048L30.582 12.3441L31.3909 11.7413L33.5293 12.4866L33.588 12.4159Z" fill="white"/>
<path d="M74.4486 35.4643C74.0454 35.9221 73.6848 36.147 72.8506 36.453V35.2834L73.9717 34.7062C74.1468 34.6436 74.2816 34.4987 74.3334 34.3179C74.3392 34.2483 74.3403 34.1788 74.3346 34.1081H72.9382C72.9013 33.7464 72.9001 33.3825 72.9335 33.0208C74.1122 32.9791 75.269 33.095 76.45 33.08C76.45 33.4277 76.4557 33.736 76.4488 34.0443C76.4396 34.4245 76.4189 34.8036 76.4016 35.1826C76.3981 35.251 76.397 35.3205 76.3866 35.3889C76.3117 35.9059 76.0375 36.2061 75.5985 36.2525C75.1146 36.3556 74.6341 36.067 74.4936 35.5906C74.4809 35.5523 74.4671 35.5118 74.4486 35.4643ZM75.564 35.1304C75.7541 34.8534 75.7806 34.6517 75.6918 34.1695L75.0466 34.1266C74.9694 34.333 74.9533 34.5567 75.0017 34.7723C75.0743 35.142 75.1607 35.2 75.564 35.1304Z" fill="white"/>
<path d="M42.4434 6.48151C43.0667 6.37719 43.6497 6.27751 44.235 6.18478C44.4262 6.15001 44.6198 6.1303 44.8134 6.12566C45.2305 6.09321 45.6107 6.3656 45.7178 6.77129C45.8584 7.18974 45.7063 7.65106 45.3457 7.90259C45.2835 7.94664 45.2189 7.98605 45.1452 8.03357C45.666 8.33263 45.8964 8.58531 46.4103 9.4164C46.2133 9.45349 46.0278 9.49059 45.8411 9.52304C45.6498 9.55665 45.4586 9.58563 45.2454 9.62041C44.9816 9.27963 44.7143 8.93653 44.4493 8.59227C44.3306 8.38479 44.0737 8.30249 43.8571 8.40333L44.0714 9.81166L43.0183 9.98901L42.4434 6.48151ZM44.712 7.30333C44.6797 7.0205 44.5541 6.86982 44.3295 6.88489C44.0852 6.87677 43.8421 6.92777 43.6209 7.03325L43.7488 7.72061C44.1394 7.66034 44.5207 7.69627 44.712 7.30333Z" fill="white"/>
<path d="M38.2012 8.894C38.2069 7.68852 39.3026 7.18199 40.2175 7.1588C41.357 7.12983 41.91 8.15449 41.9423 9.17799C41.9768 10.3139 40.9986 10.8738 39.8983 10.9109C38.8452 10.9468 38.2542 9.94764 38.2012 8.894ZM40.8915 9.32751C40.8765 8.95891 40.7567 8.60191 40.547 8.29938C40.3557 8.04089 40.0158 7.94584 39.7197 8.06871C39.4248 8.1626 39.2301 8.44427 39.2439 8.75491C39.2589 9.13626 39.3914 9.5037 39.6229 9.80507C39.8096 10.0543 40.1426 10.1377 40.4237 10.0079C40.7221 9.9233 40.918 9.63816 40.8915 9.32751Z" fill="white"/>
<path d="M64.4645 11.6642C64.4242 12.4373 63.9887 13.134 63.3135 13.5049C62.9632 13.6903 62.5519 13.7193 62.1798 13.586C61.75 13.4539 61.364 13.207 61.0622 12.8732C60.7061 12.4976 60.5713 11.9621 60.7073 11.4602C60.8179 10.9849 61.0748 10.5584 61.4412 10.2385C61.8629 9.84206 62.4724 9.72267 63.0105 9.93131C63.4483 10.0762 63.8354 10.344 64.1269 10.7033C64.3539 10.971 64.4737 11.313 64.4645 11.6642ZM63.4644 11.5274C63.4644 11.0267 62.886 10.5364 62.4021 10.8389C61.9908 11.0846 61.72 11.5123 61.674 11.9911C61.6233 12.4964 62.2235 12.9265 62.6591 12.6946C63.0877 12.4478 63.3838 12.0189 63.4644 11.5274Z" fill="white"/>
<path d="M22.5346 39.2997C21.6302 39.2997 21.0518 38.865 20.8536 38.0223C20.7776 37.7221 20.7522 37.4115 20.7787 37.102C20.8651 36.3172 21.2649 35.8861 22.0277 35.6925C22.348 35.6044 22.6821 35.58 23.0116 35.6206C23.6108 35.6797 24.1154 36.0947 24.2905 36.6743C24.4219 37.0452 24.468 37.4404 24.4242 37.8322C24.3781 38.3863 24.0313 38.8685 23.5244 39.0875C23.2156 39.2371 22.8768 39.3101 22.5346 39.2997ZM22.7985 36.6696C22.4886 36.6615 22.1809 36.7322 21.9056 36.8759C21.6555 37.0324 21.5276 37.3292 21.5841 37.6201C21.6152 37.918 21.8422 38.1579 22.136 38.2031C22.4989 38.2727 22.8734 38.2275 23.2098 38.0756C23.4863 37.9667 23.6569 37.685 23.6269 37.3871C23.6062 36.92 23.3216 36.6719 22.7985 36.6696Z" fill="white"/>
<path d="M76.4019 31.6928C76.1495 31.7357 75.9283 31.7763 75.706 31.8087C75.2313 31.8783 74.7554 31.9513 74.2796 32.0104C73.5929 32.0973 72.8566 31.7855 72.6861 30.9336C72.6147 30.5963 72.579 30.2532 72.579 29.9089C72.5594 29.3931 72.8843 28.9272 73.374 28.7718C73.7334 28.6606 74.1021 28.5806 74.4754 28.5331C74.9375 28.4565 75.4029 28.4044 75.8673 28.3418C76.0009 28.6756 76.0562 29.0361 76.0274 29.3943C75.5389 29.4661 75.0435 29.5368 74.5469 29.6099C74.3314 29.6412 74.1137 29.6574 73.9028 29.7049C73.571 29.749 73.3371 30.055 73.3809 30.3888C73.3901 30.463 73.4131 30.5337 73.4489 30.5998C73.526 30.8269 73.7507 30.9707 73.9881 30.9429C74.2842 30.9185 74.578 30.8779 74.8729 30.8374C75.2462 30.7864 75.6195 30.7261 75.9928 30.6751C76.077 30.6693 76.1611 30.6693 76.2463 30.6739L76.4019 31.6928Z" fill="white"/>
<path d="M72.3542 23.6568L71.5891 22.114L70.9405 22.4363L71.7735 24.1355L71.0983 24.4821C71.0661 24.4427 71.0373 24.3998 71.0108 24.3569C70.5983 23.5212 70.1881 22.6855 69.7549 21.8069L72.9349 20.2305L74.2242 22.864L73.5755 23.1943L72.7459 21.5391L72.2205 21.7953L72.9706 23.3392L72.3542 23.6568Z" fill="white"/>
<path d="M71.4943 19.6989L70.9159 18.9606C71.106 18.5039 71.0576 18.2014 70.7788 18.0379C70.6244 17.9475 70.5553 17.973 70.3721 18.2048L70.5253 18.672C70.6186 18.956 70.7293 19.2353 70.8007 19.5239C70.9159 19.8867 70.8065 20.2831 70.523 20.5358C70.2246 20.8221 69.7902 20.9125 69.4031 20.77C69.2522 20.7178 69.1116 20.639 68.9872 20.5382C68.5851 20.2078 68.2901 19.765 68.1392 19.2654C67.9963 18.7879 68.1841 18.2721 68.6 17.9985L69.1992 18.7577C69.039 18.9907 68.8812 19.226 69.0148 19.5181C69.0886 19.7302 69.2718 19.8844 69.493 19.918C69.8006 19.7986 69.879 19.6734 69.8029 19.3779C69.7568 19.2005 69.6658 19.0348 69.6232 18.8574C69.5448 18.5711 69.4907 18.2779 69.4607 17.9823C69.4192 17.3935 70.0472 16.9959 70.5714 17.1385C70.6947 17.1663 70.8111 17.2161 70.9171 17.2845C71.4321 17.6415 71.7881 18.1875 71.9079 18.8053C71.9667 19.1148 71.8284 19.3929 71.4943 19.6989Z" fill="white"/>
<path d="M22.2906 40.3704L22.6294 41.2954C22.3724 41.4889 22.233 41.7196 22.3793 42.0407C22.4646 42.2285 22.528 42.2656 22.7838 42.2574C22.9681 42.1149 22.9174 41.9132 22.9151 41.7196C22.899 41.3649 22.9036 41.0091 22.9255 40.6555C23.0061 39.8082 24.0154 39.5497 24.6169 40.0122C24.7459 40.1084 24.8554 40.2278 24.9418 40.3634C25.2529 40.8526 25.39 41.4345 25.3301 42.0129C25.2748 42.4719 24.9579 42.7211 24.5385 42.9181L24.1906 41.9943C24.7471 41.511 24.7401 41.0265 24.1848 40.7784C23.8795 40.8688 23.8207 40.9291 23.8103 41.2212C23.8023 41.4507 23.8265 41.6825 23.8161 41.912C23.8138 42.1299 23.7896 42.3479 23.7424 42.5611C23.6248 43.0445 23.1409 43.3412 22.6593 43.2241C22.5476 43.1963 22.4427 43.1476 22.3482 43.0804C22.2238 42.9981 22.1178 42.8915 22.0337 42.7675C21.7145 42.2968 21.5705 41.7277 21.6258 41.1598C21.6754 40.7888 21.9346 40.4794 22.2906 40.3704Z" fill="white"/>
<path d="M54.9824 10.2013L53.9062 9.99267C53.8717 9.76548 53.844 9.57654 53.8141 9.37833L52.5939 9.14419L52.2713 9.6855L51.2217 9.47686L53.1838 6.23828L54.3348 6.45851C54.5687 7.68602 54.7738 8.91353 54.9824 10.2013ZM53.7323 8.60636C53.7276 8.17285 53.6585 7.74282 53.5283 7.32901L52.9465 8.44177L53.7323 8.60636Z" fill="white"/>
<path d="M25.9787 23.0669C25.7909 23.0229 25.5985 22.9939 25.4153 22.9325C24.9706 22.7818 24.5558 22.5511 24.1929 22.2521C23.717 21.9275 23.5488 21.3004 23.7988 20.7788C23.8772 20.576 23.9832 20.3836 24.1134 20.2097C24.3692 19.8388 24.8254 19.6637 25.2621 19.7681C25.882 19.8956 26.4546 20.1888 26.9224 20.6177C27.374 20.9585 27.5031 21.5832 27.2231 22.077C27.1263 22.2845 27.0053 22.4792 26.8625 22.6577C26.6435 22.9209 26.3198 23.0716 25.9787 23.0669ZM26.1124 22.1616C26.3647 22.1709 26.503 22.1025 26.5687 21.9426C26.6458 21.7664 26.594 21.5601 26.4419 21.443C26.0122 21.0628 25.5017 20.7869 24.9487 20.6351C24.7655 20.5748 24.5662 20.6548 24.4752 20.8263C24.391 20.9701 24.406 21.1509 24.5132 21.2772C24.5454 21.3248 24.5846 21.3665 24.6295 21.4024C25.0259 21.7131 25.4695 21.9588 25.9419 22.1304C25.9972 22.1466 26.0548 22.157 26.1124 22.1616Z" fill="white"/>
<path d="M73.3711 26.955V27.8418C72.7938 27.9913 72.1936 27.7073 71.9389 27.1648C71.7707 26.8368 71.6716 26.4763 71.6486 26.1077C71.5956 25.5154 71.8974 24.9498 72.4171 24.6669C72.818 24.4154 73.2847 24.2879 73.7582 24.3018C74.1534 24.3018 74.5302 24.471 74.7928 24.7678C75.18 25.2024 75.3816 25.7727 75.3551 26.3558C75.3321 26.8125 75.082 27.2263 74.6915 27.4592L74.2202 26.6398C74.264 26.5899 74.3032 26.5493 74.3389 26.5065C74.5935 26.2248 74.5728 25.7901 74.294 25.534C74.1453 25.3972 73.9437 25.3334 73.7432 25.3601C73.4183 25.4215 73.1038 25.527 72.8065 25.673C72.5404 25.7901 72.4044 26.0892 72.4908 26.3685C72.5357 26.6513 72.757 26.8716 73.0381 26.9156C73.136 26.9342 73.2386 26.9388 73.3711 26.955Z" fill="white"/>
<path d="M24.4207 26.2262C23.7766 26.1578 23.1637 25.9179 22.6417 25.5319C22.2915 25.2873 22.1279 24.8515 22.2304 24.4354C22.28 24.1885 22.3572 23.9485 22.4609 23.7202C22.6602 23.2577 23.1464 22.9911 23.6407 23.0734C24.2467 23.1291 24.8286 23.3412 25.3298 23.6889C25.8091 23.9625 26.0199 24.5455 25.8275 25.0648C25.7849 25.2189 25.7284 25.3708 25.6616 25.5157C25.4358 26.0083 25.0417 26.2297 24.4207 26.2262ZM24.6569 25.3314C24.9334 25.3291 25.0797 25.2363 25.1431 25.0601C25.2065 24.8921 25.1454 24.702 24.9968 24.6023C24.8931 24.5119 24.7779 24.4365 24.6546 24.3774C24.3827 24.2604 24.1027 24.1572 23.8227 24.0587C23.6925 24.0146 23.5589 23.9845 23.4229 23.9659C23.2132 23.9265 23.0035 24.039 22.9194 24.236C22.8526 24.4064 22.9033 24.5594 23.0922 24.7147C23.1694 24.7831 23.257 24.8388 23.3515 24.8805C23.7017 25.0184 24.0543 25.1494 24.4092 25.2757C24.491 25.3001 24.5751 25.3175 24.6603 25.3291L24.6569 25.3314Z" fill="white"/>
<path d="M21.779 32.0779L21.6165 32.9809C20.9195 32.8372 20.6084 32.4581 20.6257 31.7603C20.6326 31.4729 20.6729 31.1877 20.7467 30.9096C20.8722 30.3729 21.4069 30.0391 21.9403 30.1654C22.0832 30.199 22.2168 30.2639 22.3309 30.3555C22.5901 30.5653 22.8033 30.8261 22.9577 31.1228C23.0902 31.3349 23.2227 31.5471 23.3759 31.794C23.5418 31.5343 23.4669 31.2874 23.5038 31.0602C23.5418 30.8238 23.5568 30.5838 23.5868 30.301L24.3541 30.3427C24.2642 31.3442 24.179 32.3028 24.0914 33.2985C23.7527 33.2278 23.4427 33.0574 23.1996 32.8093C22.9715 32.5532 22.7733 32.2692 22.5705 31.9922C22.4484 31.8253 22.3424 31.6467 22.2272 31.4764C22.1892 31.4196 22.1454 31.3651 22.0982 31.3152C21.9737 31.1576 21.7675 31.0892 21.5739 31.1402C21.4069 31.2005 21.2928 31.3558 21.287 31.5343C21.2801 31.7372 21.4045 31.9215 21.5947 31.9887C21.6465 32.0096 21.696 32.0362 21.779 32.0779Z" fill="white"/>
<path d="M37.2542 9.74259L37.571 10.3465L36.3566 11.0072L37.018 12.2961L36.0732 12.8038L34.4268 9.65102L36.8071 8.39453L37.1597 9.03784L35.7425 9.80054L36.0306 10.3778L37.2542 9.74259Z" fill="white"/>
<path d="M72.0013 44.8619L70.6475 44.2661L71.0738 43.2832L72.4448 43.8686L74.8713 43.4362L74.3978 44.5177L73.0002 44.7101L73.8102 45.8669L73.3424 46.9599L72.0013 44.8619Z" fill="white"/>
<path d="M56.8651 10.8797L55.857 10.5343L56.7027 8.0167C56.387 7.80458 56.0091 7.77328 55.6611 7.58898L55.933 6.80078L59.0727 7.87528L58.8008 8.67855L57.735 8.33082L56.8651 10.8797Z" fill="white"/>
<path d="M72.2347 39.6698L74.826 40.3514L75.1278 39.2676L75.9401 39.482L75.1048 42.6986L74.281 42.4969L74.5575 41.4038L71.9697 40.7095L72.2347 39.6698Z" fill="white"/>
<path d="M21.7416 29.2805L20.9766 29.0974L21.6022 26.3027L22.2232 26.4395C22.7958 27.3819 23.7049 28.0704 24.7637 28.3636L24.5587 29.2828C23.6012 28.9826 22.7647 28.381 22.1714 27.5662C21.9778 28.1504 21.9213 28.7091 21.7416 29.2805Z" fill="white"/>
<path d="M26.8766 18.193C26.8087 18.5361 26.7522 18.8282 26.6911 19.1192C26.6716 19.1783 26.6451 19.2363 26.6139 19.2907L26.0033 18.841C26.1727 18.3182 26.2429 17.8001 25.9561 17.2913L26.4319 16.6387L29.325 18.7842L28.7558 19.5747L26.8766 18.193Z" fill="white"/>
<path d="M32.0635 15.7722L31.325 16.5674L28.8916 13.993L29.6371 13.2129L32.0635 15.7722Z" fill="white"/>
<path d="M59.4141 11.986L58.4463 11.5178L59.9545 8.30469L60.9315 8.76138L59.4141 11.986Z" fill="white"/>
<path d="M25.9138 43.1699L26.3378 44.1633L23.0921 45.5739L22.667 44.5817L25.9138 43.1699Z" fill="white"/>
<path d="M72.5762 37.9819L72.7294 36.9375C73.8954 37.0789 75.0361 37.2551 76.217 37.4336L76.073 38.4826C74.8943 38.3366 73.7491 38.1673 72.5762 37.9819Z" fill="white"/>
<path d="M63.8576 34.1171C63.8679 35.0433 63.6628 35.9601 63.2607 36.7924C62.7446 37.8089 61.877 38.6006 60.8204 39.0179C60.0531 39.3239 59.2397 39.4943 58.4147 39.5244C57.4538 39.6009 56.4871 39.4954 55.5654 39.2149C53.571 38.5716 52.3762 37.2189 52.072 35.1117C51.9211 34.1519 51.9821 33.1713 52.2506 32.2382C52.655 30.8148 53.7069 29.6707 55.0861 29.1526C56.2682 28.7006 57.5425 28.5429 58.7984 28.6948C59.5196 28.7435 60.2271 28.9162 60.8907 29.2036C62.4634 29.8562 63.5614 31.3167 63.7573 33.0171C63.8103 33.3811 63.8253 33.7508 63.8576 34.1171ZM59.9402 34.1171C59.9079 33.6245 59.8918 33.1284 59.8376 32.6381C59.7973 32.0852 59.6487 31.5474 59.3998 31.0524C59.1244 30.5018 58.5553 30.1622 57.9435 30.1842C57.3201 30.1529 56.7348 30.4902 56.4468 31.0478C56.244 31.4361 56.1127 31.8568 56.0574 32.2915C55.8961 33.3625 55.8765 34.4498 55.9998 35.5255C56.0378 36.0192 56.1553 36.5049 56.3477 36.9604C56.7187 37.8333 57.7246 38.239 58.5921 37.8657C58.9735 37.7011 59.2823 37.4032 59.462 37.0277C59.568 36.7982 59.651 36.5594 59.7074 36.3125C59.863 35.5904 59.9402 34.8555 59.9402 34.1171Z" fill="white"/>
<path d="M48.897 32.4433C48.829 32.2544 48.7772 32.1025 48.7219 31.9519C48.3463 30.9365 47.5904 30.4195 46.5466 30.3071C46.1491 30.2456 45.7424 30.2677 45.3541 30.372C45.0994 30.4462 44.8702 30.5876 44.6893 30.7835C44.3171 31.1973 44.3574 31.6632 44.8298 31.953C45.1052 32.1165 45.4025 32.2405 45.7112 32.3216C46.3611 32.5013 47.0259 32.6311 47.678 32.8073C48.4361 32.9916 49.1597 33.2953 49.8233 33.7079C50.5365 34.1542 50.9939 34.918 51.0515 35.7607C51.1725 36.6162 50.934 37.4832 50.3925 38.1543C49.9812 38.64 49.4466 39.0039 48.8451 39.2068C48.0409 39.4792 47.1895 39.5881 46.3426 39.5267C45.346 39.4722 44.3701 39.2184 43.4714 38.7802C43.4323 38.7617 43.3885 38.7501 43.3216 38.7269L42.9391 39.2682H41.5888V35.5115C41.8215 35.4756 42.0589 35.4663 42.2939 35.4825C42.522 35.4767 42.7502 35.4814 43.0071 35.4814C43.0543 35.6054 43.0958 35.7213 43.1431 35.8349C43.6131 36.9616 44.4024 37.7162 45.6202 37.9515C46.0246 38.0454 46.4452 38.0361 46.845 37.9248C47.0639 37.8599 47.2678 37.7556 47.4487 37.6153C47.7978 37.3649 47.8796 36.877 47.6319 36.5257C47.5812 36.4539 47.519 36.3913 47.4476 36.3403C47.1538 36.1224 46.8277 35.9508 46.482 35.8326C45.8126 35.5985 45.1225 35.4269 44.4473 35.2101C43.9761 35.0676 43.5129 34.8995 43.0601 34.7071C42.1994 34.3223 41.5692 33.6963 41.3779 32.7447C41.0726 31.2251 41.7075 29.9037 43.0924 29.1688C43.6857 28.864 44.339 28.6936 45.0038 28.6669C46.2654 28.573 47.5317 28.8037 48.6804 29.3369C48.7219 29.3566 48.7656 29.3705 48.8405 29.3995L49.1205 28.9289H50.5423V32.4352C50.2784 32.4375 50.0088 32.4422 49.7404 32.4433C49.4639 32.4445 49.1896 32.4433 48.897 32.4433Z" fill="white"/>
<path d="M40.3813 37.7951V39.208H34.375V37.7951C34.5605 37.7951 34.7414 37.7985 34.92 37.7939C35.0456 37.7939 35.1711 37.7835 35.2956 37.7626C35.4857 37.7441 35.6378 37.5934 35.6597 37.4021C35.6873 37.2549 35.7058 37.1066 35.7127 36.9582C35.7161 35.0456 35.7161 33.1319 35.7127 31.2194C35.7115 30.5425 35.5514 30.3883 34.8785 30.3767C34.7195 30.3744 34.5593 30.3767 34.375 30.3767V28.9707H40.3398C40.4181 29.4274 40.425 29.8945 40.3594 30.3535C40.2764 30.3616 40.1888 30.3721 40.1001 30.3779C40.0114 30.3837 39.9169 30.3779 39.8248 30.3802C39.2118 30.4022 39.0666 30.5344 39.0666 31.1429C39.0609 33.1018 39.0609 35.0607 39.0666 37.0196C39.0689 37.6479 39.2153 37.7835 39.8432 37.7951C40.0137 37.7974 40.1831 37.7951 40.3813 37.7951Z" fill="white"/>
</svg>
