<svg width="180" height="44" viewBox="0 0 180 44" fill="none" xmlns="http://www.w3.org/2000/svg">
<path d="M177.22 25.289C177.22 33.0665 171.203 39.9374 164.077 40.6237V34.2949C167.942 33.5042 170.824 28.853 170.824 23.041V18.0255C174.366 18.1187 177.22 21.0387 177.22 24.6225V25.289ZM168.492 18.3869V23.0382C168.492 27.2941 166.565 30.971 164.077 31.8662V24.6197C164.077 21.7363 165.925 19.285 168.492 18.3869V18.3869ZM174.905 16.7603C177.65 15.2437 179.515 12.3095 179.515 8.94606C179.515 7.79101 179.287 6.68962 178.888 5.67578C178.192 6.07398 177.52 6.50888 176.888 6.9918C177.079 7.61027 177.183 8.26546 177.183 8.94606C177.183 12.5665 174.251 15.512 170.65 15.512C167.048 15.512 164.119 12.5665 164.119 8.94606C164.119 8.2937 164.217 7.66393 164.394 7.06805C163.762 6.58513 163.088 6.1474 162.388 5.74638C162.006 6.74046 161.787 7.81643 161.787 8.94606C161.787 12.3095 163.652 15.2437 166.394 16.7603C163.627 18.2796 161.745 21.2336 161.745 24.6197V43.0213H162.911C171.776 43.0213 179.551 34.7355 179.551 25.2862V24.6197C179.551 21.2336 177.669 18.2796 174.902 16.7603H174.905Z" fill="#44BE78"/>
<path d="M170.649 2.38109C172.163 2.38109 173.551 2.90637 174.658 3.77901C173.088 5.10915 171.722 6.66804 170.607 8.43026C169.5 6.69063 168.144 5.14868 166.582 3.82702C167.697 2.92614 169.107 2.38109 170.649 2.38109V2.38109ZM169.568 11.3278L170.632 13.3583L171.675 11.2797C173.329 7.97558 175.911 5.28989 179.138 3.51637L179.787 3.16054L178.672 1.10179L178.02 1.46044C177.52 1.7372 177.04 2.03655 176.568 2.35003C174.998 0.921044 172.927 0.0371094 170.647 0.0371094C168.366 0.0371094 166.248 0.940813 164.672 2.40086C164.172 2.06762 163.658 1.7485 163.127 1.46044L162.621 1.18651L161.512 3.25091L162.017 3.52484C165.284 5.29836 167.894 7.99817 169.565 11.3306L169.568 11.3278Z" fill="#44BE78"/>
<path d="M21.4133 38.3849H17.6718L17.7027 27.3654C17.7027 26.4928 17.7926 25.0779 17.8515 24.9282L17.7027 24.8689C17.6409 25.14 17.2841 26.3431 17.0426 26.8571L11.9836 38.4781H9.88806L4.70828 26.7385C4.32064 25.9251 4.10997 25.0214 4.07907 24.8717L3.95828 24.931C3.98918 25.0835 4.07907 26.4956 4.07907 27.3682L4.13806 38.3878H0.396484V18.5176H4.46952L9.64929 29.8647C10.1577 31.0085 10.7869 32.6634 10.9386 33.1463H11.0285C11.1493 32.6634 11.8375 31.0085 12.3459 29.8647L17.4667 18.5176H21.419V38.3849H21.4133Z" fill="#262626"/>
<path d="M29.0225 21.6467V26.7046H36.9579V29.715H29.0225V35.2559H38.0955V38.3849H25.25V18.5176H38.0955V21.6467H29.0225Z" fill="#262626"/>
<path d="M47.1099 28.5713C49.7138 28.5713 51.5705 27.3372 51.5705 25.0779C51.5705 22.8186 50.0733 21.5563 47.4104 21.5563H44.8964V28.5713H47.1127H47.1099ZM56.9301 38.3849C56.9301 38.3849 56.152 38.5939 54.9245 38.5939C49.0537 38.5939 50.7026 31.3106 46.0312 31.3106H44.8936V38.3849H41.1211V18.5176H47.6183C52.5874 18.5176 55.3121 20.5029 55.3121 25.0497C55.3121 27.8201 53.7559 29.715 51.1801 30.647C53.4582 31.7936 53.4863 35.5552 56.0902 35.5552C56.4188 35.5552 56.6885 35.4931 56.6885 35.4931L56.9273 38.3849H56.9301Z" fill="#262626"/>
<path d="M62.7416 18.5176H59V38.3849H62.7416V18.5176Z" fill="#262626"/>
<path d="M70.829 21.6467H64.7195V18.5176H80.7391V21.6467H74.6015V38.3849H70.829V21.6467Z" fill="#262626"/>
<path d="M96.1012 28.4507C96.1012 24.1779 93.7051 21.6165 90.3821 21.6165C87.059 21.6165 84.6911 24.1779 84.6911 28.4507C84.6911 32.7235 87.0871 35.285 90.3821 35.285C93.677 35.285 96.1012 32.6953 96.1012 28.4507ZM99.9046 28.4507C99.9046 34.6524 95.9832 38.5665 90.3821 38.5665C84.781 38.5665 80.8877 34.6524 80.8877 28.4507C80.8877 22.249 84.8427 18.3066 90.3821 18.3066C95.9214 18.3066 99.9046 22.2208 99.9046 28.4507Z" fill="#262626"/>
<path d="M108.742 28.5713C111.346 28.5713 113.202 27.3372 113.202 25.0779C113.202 22.8186 111.705 21.5563 109.039 21.5563H106.525V28.5713H108.742ZM118.562 38.3849C118.562 38.3849 117.784 38.5939 116.556 38.5939C110.688 38.5939 112.334 31.3106 107.663 31.3106H106.525V38.3849H102.753V18.5176H109.25C114.222 18.5176 116.947 20.5029 116.947 25.0497C116.947 27.8201 115.388 29.715 112.815 30.647C115.09 31.7936 115.121 35.5552 117.725 35.5552C118.053 35.5552 118.323 35.4931 118.323 35.4931L118.562 38.3849Z" fill="#262626"/>
<path d="M134.643 28.4507C134.643 24.1779 132.247 21.6165 128.924 21.6165C125.601 21.6165 123.233 24.1779 123.233 28.4507C123.233 32.7235 125.629 35.285 128.924 35.285C132.219 35.285 134.643 32.6953 134.643 28.4507ZM138.447 28.4507C138.447 34.6524 134.525 38.5665 128.924 38.5665C123.323 38.5665 119.433 34.6524 119.433 28.4507C119.433 22.249 123.385 18.3066 128.924 18.3066C134.464 18.3066 138.447 22.2208 138.447 28.4507Z" fill="#262626"/>
<path d="M147.492 21.4978C145.514 21.4978 144.287 22.4298 144.287 23.935C144.287 27.7588 154.736 25.6803 154.736 33.1161C154.736 36.248 152.129 38.5948 147.371 38.5948C143.449 38.5948 140.753 36.9399 139.615 35.9458L141.86 33.1754C142.728 33.9577 144.736 35.4657 147.461 35.4657C149.736 35.4657 150.964 34.5902 150.964 33.1754C150.964 28.7811 140.514 31.0376 140.514 24.1158C140.514 20.8031 143.267 18.3066 147.399 18.3066C152.7 18.3066 154.197 21.4978 154.584 23.4239L151.171 24.2683C151.082 23.1838 150.003 21.4978 147.489 21.4978H147.492Z" fill="#262626"/>
</svg>
